<mxfile host="app.diagrams.net" agent="Mozilla/5.0 (Macintosh; Intel Mac OS X 10_15_7) AppleWebKit/537.36 (KHTML, like Gecko) Chrome/130.0.0.0 Safari/537.36" version="24.8.3">
  <diagram id="Ht1M8jgEwFfnCIfOTk4-" name="Page-1">
    <mxGraphModel dx="1650" dy="1097" grid="1" gridSize="10" guides="1" tooltips="1" connect="1" arrows="1" fold="1" page="1" pageScale="1" pageWidth="1169" pageHeight="827" math="0" shadow="0">
      <root>
        <mxCell id="0" />
        <mxCell id="1" parent="0" />
        <mxCell id="UEzPUAAOIrF-is8g5C7q-74" value="AWS Cloud" style="points=[[0,0],[0.25,0],[0.5,0],[0.75,0],[1,0],[1,0.25],[1,0.5],[1,0.75],[1,1],[0.75,1],[0.5,1],[0.25,1],[0,1],[0,0.75],[0,0.5],[0,0.25]];outlineConnect=0;gradientColor=none;html=1;whiteSpace=wrap;fontSize=12;fontStyle=0;shape=mxgraph.aws4.group;grIcon=mxgraph.aws4.group_aws_cloud_alt;strokeColor=#232F3E;fillColor=none;verticalAlign=top;align=left;spacingLeft=30;fontColor=#232F3E;dashed=0;labelBackgroundColor=#ffffff;container=1;pointerEvents=0;collapsible=0;recursiveResize=0;" parent="1" vertex="1">
          <mxGeometry x="-60" y="-130" width="1630" height="850" as="geometry" />
        </mxCell>
        <mxCell id="UEzPUAAOIrF-is8g5C7q-107" value="" style="rounded=0;whiteSpace=wrap;html=1;labelBackgroundColor=none;fillColor=none;dashed=1;container=1;pointerEvents=0;collapsible=0;recursiveResize=0;" parent="UEzPUAAOIrF-is8g5C7q-74" vertex="1">
          <mxGeometry x="200" y="250" width="360" height="270" as="geometry" />
        </mxCell>
        <mxCell id="aNSp-p1snahTfn3lftQD-1" value="" style="sketch=0;points=[[0,0,0],[0.25,0,0],[0.5,0,0],[0.75,0,0],[1,0,0],[0,1,0],[0.25,1,0],[0.5,1,0],[0.75,1,0],[1,1,0],[0,0.25,0],[0,0.5,0],[0,0.75,0],[1,0.25,0],[1,0.5,0],[1,0.75,0]];outlineConnect=0;fontColor=#232F3E;fillColor=#ED7100;strokeColor=#ffffff;dashed=0;verticalLabelPosition=bottom;verticalAlign=top;align=center;html=1;fontSize=12;fontStyle=0;aspect=fixed;shape=mxgraph.aws4.resourceIcon;resIcon=mxgraph.aws4.ec2;" vertex="1" parent="UEzPUAAOIrF-is8g5C7q-107">
          <mxGeometry x="46" y="80" width="78" height="78" as="geometry" />
        </mxCell>
        <mxCell id="aNSp-p1snahTfn3lftQD-3" value="Platform JS" style="whiteSpace=wrap;html=1;strokeColor=none;" vertex="1" parent="UEzPUAAOIrF-is8g5C7q-107">
          <mxGeometry x="25" y="20" width="120" height="60" as="geometry" />
        </mxCell>
        <mxCell id="aNSp-p1snahTfn3lftQD-14" value="" style="verticalLabelPosition=bottom;html=1;verticalAlign=top;align=center;strokeColor=none;fillColor=#00BEF2;shape=mxgraph.azure.worker_role;" vertex="1" parent="UEzPUAAOIrF-is8g5C7q-107">
          <mxGeometry x="265" y="118" width="50" height="40" as="geometry" />
        </mxCell>
        <mxCell id="aNSp-p1snahTfn3lftQD-15" value="Events Worker Thread" style="whiteSpace=wrap;html=1;strokeColor=none;" vertex="1" parent="UEzPUAAOIrF-is8g5C7q-107">
          <mxGeometry x="230" y="40" width="120" height="60" as="geometry" />
        </mxCell>
        <mxCell id="aNSp-p1snahTfn3lftQD-22" value="2 .Send Query Thread User Email" style="edgeStyle=orthogonalEdgeStyle;rounded=0;orthogonalLoop=1;jettySize=auto;html=1;entryX=0.48;entryY=0.575;entryDx=0;entryDy=0;entryPerimeter=0;" edge="1" parent="UEzPUAAOIrF-is8g5C7q-107" source="aNSp-p1snahTfn3lftQD-1" target="aNSp-p1snahTfn3lftQD-14">
          <mxGeometry relative="1" as="geometry">
            <Array as="points">
              <mxPoint x="85" y="230" />
              <mxPoint x="289" y="230" />
            </Array>
          </mxGeometry>
        </mxCell>
        <mxCell id="aNSp-p1snahTfn3lftQD-28" style="edgeStyle=orthogonalEdgeStyle;rounded=0;orthogonalLoop=1;jettySize=auto;html=1;" edge="1" parent="UEzPUAAOIrF-is8g5C7q-74" source="aNSp-p1snahTfn3lftQD-9" target="aNSp-p1snahTfn3lftQD-25">
          <mxGeometry relative="1" as="geometry" />
        </mxCell>
        <mxCell id="aNSp-p1snahTfn3lftQD-29" value="4. Debizium Send Kafka Message&lt;div&gt;before,after,metadata&lt;/div&gt;&lt;div&gt;&lt;br&gt;&lt;/div&gt;" style="edgeLabel;html=1;align=center;verticalAlign=middle;resizable=0;points=[];" vertex="1" connectable="0" parent="aNSp-p1snahTfn3lftQD-28">
          <mxGeometry x="0.0917" y="-1" relative="1" as="geometry">
            <mxPoint as="offset" />
          </mxGeometry>
        </mxCell>
        <mxCell id="aNSp-p1snahTfn3lftQD-9" value="" style="outlineConnect=0;dashed=0;verticalLabelPosition=bottom;verticalAlign=top;align=center;html=1;shape=mxgraph.aws3.mysql_db_instance;fillColor=#2E73B8;gradientColor=none;" vertex="1" parent="UEzPUAAOIrF-is8g5C7q-74">
          <mxGeometry x="620" y="40" width="120" height="120" as="geometry" />
        </mxCell>
        <mxCell id="aNSp-p1snahTfn3lftQD-10" value="Actor" style="shape=umlActor;verticalLabelPosition=bottom;verticalAlign=top;html=1;outlineConnect=0;" vertex="1" parent="UEzPUAAOIrF-is8g5C7q-74">
          <mxGeometry x="60" y="300" width="30" height="60" as="geometry" />
        </mxCell>
        <mxCell id="aNSp-p1snahTfn3lftQD-11" value="" style="endArrow=classic;html=1;rounded=0;entryX=-0.012;entryY=0.453;entryDx=0;entryDy=0;entryPerimeter=0;" edge="1" parent="UEzPUAAOIrF-is8g5C7q-74" target="UEzPUAAOIrF-is8g5C7q-107">
          <mxGeometry width="50" height="50" relative="1" as="geometry">
            <mxPoint x="100" y="336" as="sourcePoint" />
            <mxPoint x="390" y="280" as="targetPoint" />
          </mxGeometry>
        </mxCell>
        <mxCell id="aNSp-p1snahTfn3lftQD-13" value="1. Preform Changes On DB" style="edgeStyle=orthogonalEdgeStyle;rounded=0;orthogonalLoop=1;jettySize=auto;html=1;" edge="1" parent="UEzPUAAOIrF-is8g5C7q-74" source="UEzPUAAOIrF-is8g5C7q-107" target="aNSp-p1snahTfn3lftQD-9">
          <mxGeometry x="0.0145" relative="1" as="geometry">
            <Array as="points">
              <mxPoint x="700" y="385" />
            </Array>
            <mxPoint as="offset" />
          </mxGeometry>
        </mxCell>
        <mxCell id="aNSp-p1snahTfn3lftQD-23" value="3. write activity meta data to mysql&amp;nbsp;" style="edgeStyle=orthogonalEdgeStyle;rounded=0;orthogonalLoop=1;jettySize=auto;html=1;" edge="1" parent="UEzPUAAOIrF-is8g5C7q-74" source="aNSp-p1snahTfn3lftQD-15" target="aNSp-p1snahTfn3lftQD-9">
          <mxGeometry relative="1" as="geometry">
            <Array as="points">
              <mxPoint x="490" y="130" />
            </Array>
            <mxPoint as="offset" />
          </mxGeometry>
        </mxCell>
        <mxCell id="aNSp-p1snahTfn3lftQD-35" style="edgeStyle=orthogonalEdgeStyle;rounded=0;orthogonalLoop=1;jettySize=auto;html=1;" edge="1" parent="UEzPUAAOIrF-is8g5C7q-74" source="aNSp-p1snahTfn3lftQD-25" target="aNSp-p1snahTfn3lftQD-34">
          <mxGeometry relative="1" as="geometry">
            <Array as="points">
              <mxPoint x="869" y="590" />
              <mxPoint x="1130" y="590" />
              <mxPoint x="1130" y="378" />
            </Array>
          </mxGeometry>
        </mxCell>
        <mxCell id="aNSp-p1snahTfn3lftQD-36" value="Writes Diffs to ELK" style="edgeLabel;html=1;align=center;verticalAlign=middle;resizable=0;points=[];" vertex="1" connectable="0" parent="aNSp-p1snahTfn3lftQD-35">
          <mxGeometry x="-0.1521" relative="1" as="geometry">
            <mxPoint as="offset" />
          </mxGeometry>
        </mxCell>
        <mxCell id="aNSp-p1snahTfn3lftQD-25" value="" style="sketch=0;points=[[0,0,0],[0.25,0,0],[0.5,0,0],[0.75,0,0],[1,0,0],[0,1,0],[0.25,1,0],[0.5,1,0],[0.75,1,0],[1,1,0],[0,0.25,0],[0,0.5,0],[0,0.75,0],[1,0.25,0],[1,0.5,0],[1,0.75,0]];outlineConnect=0;fontColor=#232F3E;fillColor=#8C4FFF;strokeColor=#ffffff;dashed=0;verticalLabelPosition=bottom;verticalAlign=top;align=center;html=1;fontSize=12;fontStyle=0;aspect=fixed;shape=mxgraph.aws4.resourceIcon;resIcon=mxgraph.aws4.managed_streaming_for_kafka;" vertex="1" parent="UEzPUAAOIrF-is8g5C7q-74">
          <mxGeometry x="830" y="360" width="78" height="78" as="geometry" />
        </mxCell>
        <mxCell id="aNSp-p1snahTfn3lftQD-32" style="edgeStyle=orthogonalEdgeStyle;rounded=0;orthogonalLoop=1;jettySize=auto;html=1;entryX=0.5;entryY=0;entryDx=0;entryDy=0;entryPerimeter=0;" edge="1" parent="UEzPUAAOIrF-is8g5C7q-74" source="aNSp-p1snahTfn3lftQD-25" target="aNSp-p1snahTfn3lftQD-9">
          <mxGeometry relative="1" as="geometry">
            <Array as="points">
              <mxPoint x="1000" y="399" />
              <mxPoint x="1000" y="20" />
              <mxPoint x="680" y="20" />
            </Array>
          </mxGeometry>
        </mxCell>
        <mxCell id="aNSp-p1snahTfn3lftQD-33" value="5.get user Meta Data From Activity Log" style="edgeLabel;html=1;align=center;verticalAlign=middle;resizable=0;points=[];" vertex="1" connectable="0" parent="aNSp-p1snahTfn3lftQD-32">
          <mxGeometry x="-0.09" y="-2" relative="1" as="geometry">
            <mxPoint as="offset" />
          </mxGeometry>
        </mxCell>
        <mxCell id="aNSp-p1snahTfn3lftQD-34" value="Amazon Elasticsearch Service" style="sketch=0;outlineConnect=0;fontColor=#232F3E;gradientColor=none;strokeColor=#ffffff;fillColor=#232F3E;dashed=0;verticalLabelPosition=middle;verticalAlign=bottom;align=center;html=1;whiteSpace=wrap;fontSize=10;fontStyle=1;spacing=3;shape=mxgraph.aws4.productIcon;prIcon=mxgraph.aws4.elasticsearch_service;" vertex="1" parent="UEzPUAAOIrF-is8g5C7q-74">
          <mxGeometry x="1340" y="318" width="80" height="120" as="geometry" />
        </mxCell>
        <mxCell id="aNSp-p1snahTfn3lftQD-38" value="Amazon S3" style="sketch=0;outlineConnect=0;fontColor=#232F3E;gradientColor=none;strokeColor=#ffffff;fillColor=#232F3E;dashed=0;verticalLabelPosition=middle;verticalAlign=bottom;align=center;html=1;whiteSpace=wrap;fontSize=10;fontStyle=1;spacing=3;shape=mxgraph.aws4.productIcon;prIcon=mxgraph.aws4.s3;" vertex="1" parent="UEzPUAAOIrF-is8g5C7q-74">
          <mxGeometry x="200" y="50" width="80" height="100" as="geometry" />
        </mxCell>
        <mxCell id="aNSp-p1snahTfn3lftQD-39" style="edgeStyle=orthogonalEdgeStyle;rounded=0;orthogonalLoop=1;jettySize=auto;html=1;" edge="1" parent="UEzPUAAOIrF-is8g5C7q-74" source="aNSp-p1snahTfn3lftQD-15" target="aNSp-p1snahTfn3lftQD-38">
          <mxGeometry relative="1" as="geometry">
            <Array as="points">
              <mxPoint x="490" y="210" />
              <mxPoint x="240" y="210" />
            </Array>
          </mxGeometry>
        </mxCell>
        <mxCell id="aNSp-p1snahTfn3lftQD-41" value="BU to S3" style="edgeLabel;html=1;align=center;verticalAlign=middle;resizable=0;points=[];" vertex="1" connectable="0" parent="aNSp-p1snahTfn3lftQD-39">
          <mxGeometry x="0.2359" y="1" relative="1" as="geometry">
            <mxPoint as="offset" />
          </mxGeometry>
        </mxCell>
        <mxCell id="aNSp-p1snahTfn3lftQD-55" value="&lt;div style=&quot;background-color:#1e1f22;color:#bcbec4&quot;&gt;&lt;pre style=&quot;font-family:&#39;JetBrains Mono&#39;,monospace;font-size:9.8pt;&quot;&gt;&lt;span style=&quot;color:#cf8e6d;&quot;&gt;create table &lt;/span&gt;user_activity_audit&lt;br&gt;(&lt;br&gt;    &lt;span style=&quot;color:#c77dbb;&quot;&gt;activity_id &lt;/span&gt;&lt;span style=&quot;color:#cf8e6d;&quot;&gt;int auto_increment&lt;br&gt;&lt;/span&gt;&lt;span style=&quot;color:#cf8e6d;&quot;&gt;        primary key&lt;/span&gt;,&lt;br&gt;    &lt;span style=&quot;color:#c77dbb;&quot;&gt;user_id     &lt;/span&gt;&lt;span style=&quot;color:#cf8e6d;&quot;&gt;int         null&lt;/span&gt;,&lt;br&gt;    &lt;span style=&quot;color:#c77dbb;&quot;&gt;user_email  &lt;/span&gt;&lt;span style=&quot;color:#cf8e6d;&quot;&gt;text        null&lt;/span&gt;,&lt;br&gt;    &lt;span style=&quot;color:#c77dbb;&quot;&gt;query       &lt;/span&gt;blob        null&lt;span style=&quot;font-size: 9.8pt; white-space: normal;&quot;&gt;,&lt;/span&gt;&lt;br&gt;    &lt;span style=&quot;color:#c77dbb;&quot;&gt;timestamp   &lt;/span&gt;&lt;span style=&quot;color:#cf8e6d;&quot;&gt;timestamp   null&lt;/span&gt;,&lt;br&gt;    &lt;span style=&quot;color:#c77dbb;&quot;&gt;thread_id   &lt;/span&gt;&lt;span style=&quot;color:#cf8e6d;&quot;&gt;int         null&lt;/span&gt;,&lt;br&gt;    &lt;span style=&quot;color:#c77dbb;&quot;&gt;entity      &lt;/span&gt;&lt;span style=&quot;color:#cf8e6d;&quot;&gt;varchar&lt;/span&gt;(&lt;span style=&quot;color:#2aacb8;&quot;&gt;40&lt;/span&gt;) &lt;span style=&quot;color:#cf8e6d;&quot;&gt;null&lt;br&gt;&lt;/span&gt;);&lt;/pre&gt;&lt;/div&gt;" style="text;whiteSpace=wrap;html=1;" vertex="1" parent="1">
          <mxGeometry x="-930" y="-680" width="690" height="250" as="geometry" />
        </mxCell>
        <mxCell id="aNSp-p1snahTfn3lftQD-56" value="&lt;span class=&quot;hljs-keyword&quot;&gt;CREATE&lt;/span&gt; INDEX idx_thread_id_timestamp&#xa;&lt;span class=&quot;hljs-keyword&quot;&gt;ON&lt;/span&gt; user_activity_audit (thread_id, &lt;span class=&quot;hljs-type&quot;&gt;timestamp&lt;/span&gt;);" style="text;whiteSpace=wrap;html=1;" vertex="1" parent="1">
          <mxGeometry x="-600" y="-660" width="280" height="50" as="geometry" />
        </mxCell>
        <mxCell id="aNSp-p1snahTfn3lftQD-57" value="&lt;span class=&quot;hljs-keyword&quot;&gt;ALTER&lt;/span&gt; &lt;span class=&quot;hljs-keyword&quot;&gt;TABLE&lt;/span&gt; user_activity_audit&#xa;&lt;span class=&quot;hljs-keyword&quot;&gt;ADD&lt;/span&gt; &lt;span class=&quot;hljs-keyword&quot;&gt;COLUMN&lt;/span&gt; decompressed_query TEXT&#xa;GENERATED ALWAYS &lt;span class=&quot;hljs-keyword&quot;&gt;AS&lt;/span&gt; (from_base64(UNCOMPRESS(query))) STORED;&#xa;&#xa;&lt;span class=&quot;hljs-keyword&quot;&gt;CREATE&lt;/span&gt; INDEX idx_decompressed_query&#xa;&lt;span class=&quot;hljs-keyword&quot;&gt;ON&lt;/span&gt; user_activity_audit (decompressed_query(&lt;span class=&quot;hljs-number&quot;&gt;255&lt;/span&gt;));" style="text;whiteSpace=wrap;html=1;" vertex="1" parent="1">
          <mxGeometry x="-600" y="-600" width="450" height="110" as="geometry" />
        </mxCell>
        <mxCell id="aNSp-p1snahTfn3lftQD-58" value="&lt;div style=&quot;background-color:#1e1f22;color:#bcbec4&quot;&gt;&lt;pre style=&quot;font-family:&#39;JetBrains Mono&#39;,monospace;font-size:9.8pt;&quot;&gt;&lt;span style=&quot;color:#cf8e6d;&quot;&gt;select &lt;/span&gt;user_id, user_email, from_base64(UNCOMPRESS(&lt;span style=&quot;color:#cf8e6d;&quot;&gt;query&lt;/span&gt;)) &lt;span style=&quot;color:#cf8e6d;&quot;&gt;as query&lt;br&gt;&lt;/span&gt;&lt;span style=&quot;color:#cf8e6d;&quot;&gt;from &lt;/span&gt;main.user_activity_audit&lt;br&gt;&lt;span style=&quot;color:#cf8e6d;&quot;&gt;where &lt;/span&gt;UNCOMPRESS(&lt;span style=&quot;color:#cf8e6d;&quot;&gt;query&lt;/span&gt;) =&lt;br&gt;      &lt;span style=&quot;color:#6aab73;&quot;&gt;&#39;VVBEQVRFIG9wZW54Lm94X2NhbXBhaWducyBjIFNFVCB0ZWNobmljYWxfc3VzcGVuZGVkID0gMCwgYXJjaGl2ZWQgPSAxLCBvcmlnaW4gPSA1LCB1cGRhdGVfY291bnRlciA9IDExMSwgdXBkYXRlZF9ieV91c2VyID0gMTE3Njg0IFdIRVJFIGNhbXBhaWduaWQgPSA4NDIwNDAy&#39;&lt;br&gt;&lt;/span&gt;&lt;span style=&quot;color:#6aab73;&quot;&gt;&lt;br&gt;&lt;/span&gt;&lt;/pre&gt;&lt;/div&gt;" style="text;whiteSpace=wrap;html=1;" vertex="1" parent="1">
          <mxGeometry x="-1144" y="-380" width="560" height="130" as="geometry" />
        </mxCell>
      </root>
    </mxGraphModel>
  </diagram>
</mxfile>
